<svg width="88" height="83" viewBox="0 0 88 83" fill="none" xmlns="http://www.w3.org/2000/svg">
<path d="M39.5044 55.4507L40.6056 57.1202L39.5044 55.4507ZM1.30817 69.0231C0.6714 69.9257 0.886859 71.1735 1.78941 71.8103L16.4973 82.187C17.3999 82.8238 18.6477 82.6084 19.2845 81.7058C19.9213 80.8033 19.7058 79.5554 18.8033 78.9186L5.72957 69.6948L14.9534 56.6211C15.5901 55.7186 15.3747 54.4707 14.4721 53.834C13.5696 53.1972 12.3217 53.4126 11.6849 54.3152L1.30817 69.0231ZM83.9021 0.27999C75.3172 20.7889 61.1601 38.7721 38.4033 53.7811L40.6056 57.1202C64.0097 41.6843 78.6931 23.0833 87.5919 1.8245L83.9021 0.27999ZM38.4033 53.7811C28.3361 60.4207 16.1323 65.8691 2.60209 68.2052L3.28267 72.1469C17.4363 69.7031 30.1511 64.0153 40.6056 57.1202L38.4033 53.7811Z" fill="#201D1D"/>
</svg>
