<svg width="36" height="16" viewBox="0 0 36 16" fill="none" xmlns="http://www.w3.org/2000/svg">
<path d="M1 7C0.447715 7 0 7.44772 0 8C0 8.55228 0.447715 9 1 9V7ZM35.3242 8.70711C35.7147 8.31658 35.7147 7.68342 35.3242 7.29289L28.9602 0.928932C28.5697 0.538408 27.9365 0.538408 27.546 0.928932C27.1555 1.31946 27.1555 1.95262 27.546 2.34315L33.2029 8L27.546 13.6569C27.1555 14.0474 27.1555 14.6805 27.546 15.0711C27.9365 15.4616 28.5697 15.4616 28.9602 15.0711L35.3242 8.70711ZM1 9H34.6171V7H1V9Z" fill="#75EB18"/>
</svg>
